<svg width="60" height="60" viewBox="0 0 60 60" fill="none" xmlns="http://www.w3.org/2000/svg">
<path d="M50.8861 16.4869C50.8876 18.0069 50.6759 19.5199 50.2572 20.9827H55.1787C57.843 20.9827 60 23.1107 60 25.7362V40.4645C60 44.1259 58.9542 47.7132 56.9825 50.8151C55.0107 53.917 52.1928 56.408 48.852 58.0023C45.5111 59.5967 41.7824 60.23 38.0934 59.8295C34.4044 59.429 30.9045 58.0111 27.9949 55.7382L24.3949 59.2869C24.1863 59.5077 23.9348 59.6849 23.6553 59.8077C23.3758 59.9306 23.0741 59.9966 22.7682 60.002C22.4622 60.0073 22.1583 59.9518 21.8746 59.8387C21.5909 59.7257 21.3332 59.5574 21.1168 59.3439C20.9005 59.1305 20.7299 58.8762 20.6153 58.5963C20.5007 58.3164 20.4444 58.0166 20.4498 57.7148C20.4552 57.4129 20.5222 57.1153 20.6467 56.8395C20.7713 56.5638 20.9508 56.3156 21.1747 56.1098L24.7716 52.5582C23.563 51.0547 22.5864 49.3832 21.8734 47.5978C19.2248 48.1312 16.489 48.0767 13.8644 47.4383C11.2397 46.7998 8.79186 45.5935 6.6981 43.9065C4.60435 42.2196 2.91712 40.0943 1.75864 37.6846C0.600168 35.275 -0.000551374 32.6413 3.7974e-07 29.9743V16.5289C3.7974e-07 14.0232 2.05975 11.9911 4.59949 11.9911H18.0972C19.0902 8.53878 21.1976 5.50025 24.0996 3.33661C27.0016 1.17297 30.5398 0.00232864 34.1772 0.00231934H46.5114C48.9266 0.00231934 50.8861 1.93551 50.8861 4.31828V16.4869ZM22.6997 12.5366C25.2213 13.1681 27.5771 14.3237 29.6094 15.9261C31.6417 17.5285 33.3037 19.5406 34.4841 21.8279C36.3541 21.266 38.2983 20.9811 40.2532 20.9827H45.4481C46.0318 19.5539 46.3309 18.0274 46.3291 16.4869V4.49811H34.1772C31.6553 4.49814 29.1959 5.27185 27.1395 6.71209C25.0831 8.15233 23.5315 10.1878 22.6997 12.5366ZM31.2456 52.5312C33.5079 54.175 36.1881 55.1675 38.988 55.3983C41.7879 55.6292 44.5979 55.0894 47.1054 53.839C49.613 52.5885 51.7199 50.6764 53.1918 48.3152C54.6637 45.9541 55.443 43.2364 55.443 40.4645V25.7362C55.443 25.7024 55.4363 25.6689 55.4231 25.6376C55.41 25.6063 55.3908 25.5779 55.3665 25.554C55.3423 25.53 55.3134 25.5111 55.2818 25.4981C55.2501 25.4852 55.2161 25.4785 55.1818 25.4785H40.2532C37.4435 25.4785 34.6889 26.2473 32.2956 27.6995C29.9023 29.1517 27.9642 31.2303 26.6967 33.7042C25.4292 36.1781 24.8821 38.9503 25.1161 41.7126C25.3501 44.475 26.3561 47.1192 28.0223 49.3512L40.9215 36.6281C41.1301 36.4072 41.3817 36.2301 41.6611 36.1072C41.9406 35.9843 42.2424 35.9183 42.5483 35.913C42.8542 35.9076 43.1581 35.9632 43.4418 36.0762C43.7255 36.1893 43.9832 36.3575 44.1996 36.571C44.416 36.7845 44.5865 37.0387 44.7011 37.3186C44.8157 37.5985 44.872 37.8983 44.8666 38.2002C44.8612 38.502 44.7942 38.7996 44.6697 39.0754C44.5452 39.3511 44.3656 39.5993 44.1418 39.8051L31.2456 52.5312ZM20.5063 40.4645C20.5063 38.6901 20.7494 36.9697 21.199 35.3363L12.8203 27.067C12.5964 26.8612 12.4168 26.613 12.2923 26.3373C12.1678 26.0616 12.1008 25.7639 12.0954 25.4621C12.09 25.1602 12.1463 24.8604 12.2609 24.5805C12.3755 24.3006 12.5461 24.0464 12.7624 23.8329C12.9788 23.6195 13.2365 23.4512 13.5202 23.3381C13.8039 23.2251 14.1078 23.1695 14.4137 23.1749C14.7197 23.1802 15.0214 23.2463 15.3009 23.3691C15.5804 23.492 15.8319 23.6691 16.0405 23.89L23.0825 30.8345C24.8062 27.8521 27.2944 25.3693 30.2977 23.6352C29.1322 21.4757 27.3933 19.6697 25.2671 18.4105C23.141 17.1513 20.7077 16.4864 18.2278 16.4869H4.5843L4.56911 16.4989C4.56542 16.5035 4.56235 16.5085 4.56 16.5139L4.55696 16.5289V29.9743C4.55669 31.9528 4.99764 33.9071 5.84854 35.6987C6.69943 37.4903 7.93944 39.0753 9.48063 40.3412C11.0218 41.6072 12.8264 42.5231 14.7665 43.024C16.7066 43.5249 18.7346 43.5986 20.7068 43.2399C20.5736 42.3206 20.5066 41.3931 20.5063 40.4645Z" fill="#754E29"/>
</svg>
