<svg width="60" height="61" viewBox="0 0 60 61" fill="none" xmlns="http://www.w3.org/2000/svg">
<path d="M30 0.50354C13.458 0.50354 0 13.9615 0 30.5035V42.9325C0 46.0045 2.691 48.5035 6 48.5035H9C9.79565 48.5035 10.5587 48.1875 11.1213 47.6249C11.6839 47.0623 12 46.2992 12 45.5035V30.0745C12 29.2789 11.6839 28.5158 11.1213 27.9532C10.5587 27.3906 9.79565 27.0745 9 27.0745H6.276C7.944 15.4645 17.934 6.50354 30 6.50354C42.066 6.50354 52.056 15.4645 53.724 27.0745H51C50.2043 27.0745 49.4413 27.3906 48.8787 27.9532C48.3161 28.5158 48 29.2789 48 30.0745V48.5035C48 51.8125 45.309 54.5035 42 54.5035H36V51.5035H24V60.5035H42C48.618 60.5035 54 55.1215 54 48.5035C57.309 48.5035 60 46.0045 60 42.9325V30.5035C60 13.9615 46.542 0.50354 30 0.50354Z" fill="#754E29"/>
</svg>
