<svg width="66" height="65" viewBox="0 0 66 65" fill="none" xmlns="http://www.w3.org/2000/svg">
<path d="M29.7633 3.76061C30.7535 3.25849 31.8674 2.995 33 2.995C34.1326 2.995 35.2465 3.25849 36.2367 3.76061L61.2867 16.4657C61.806 16.7295 62.2387 17.1152 62.5399 17.5829C62.8412 18.0507 63 18.5834 63 19.1261V44.1924C62.9997 45.278 62.6816 46.3437 62.0785 47.2793C61.4754 48.2148 60.6093 48.986 59.57 49.5131L36.2367 61.3538C35.2465 61.8559 34.1326 62.1194 33 62.1194C31.8674 62.1194 30.7535 61.8559 29.7633 61.3538L6.43 49.5131C5.39118 48.9863 4.52544 48.2155 3.92238 47.2806C3.31932 46.3456 3.00088 45.2805 3 44.1954V19.1261C2.99998 18.5834 3.15881 18.0507 3.46005 17.5829C3.76129 17.1152 4.19399 16.7295 4.71333 16.4657L29.7633 3.76061Z" stroke="#754E29" stroke-width="4.16667" stroke-linecap="round" stroke-linejoin="round"/>
<path d="M3 17.3372L33 32.5565M33 32.5565L63 17.3372M33 32.5565V62.9953" stroke="#754E29" stroke-width="4.16667" stroke-linejoin="round"/>
<path d="M18 24.9464L48 9.72705M13 33.5545L23 38.6439" stroke="#754E29" stroke-width="4.16667" stroke-linecap="round" stroke-linejoin="round"/>
</svg>
