<svg width="60" height="60" viewBox="0 0 60 60" fill="none" xmlns="http://www.w3.org/2000/svg">
<path d="M25.556 0.156699L25.5418 0.136687L25.5046 0.165276C11.1704 1.68906 0 13.8307 0 28.5912C0 35.2009 2.24151 41.2875 6.00495 46.1304V46.1361H6.01066C8.38977 49.2048 11.3693 51.755 14.7669 53.6309C18.1644 55.5067 21.9086 56.6687 25.7702 57.0457C25.9044 55.6848 26.2356 54.2611 26.7325 52.8231C20.5724 52.3651 14.8202 49.5668 10.6536 45.0012C10.8106 44.315 10.882 43.5174 10.9391 42.8256L10.9648 42.4882C11.0162 41.8593 11.0648 41.2532 11.1447 40.6414C11.3446 39.1347 11.6872 38.1284 12.2212 37.5595C12.9065 36.8248 13.6089 36.7018 15.0795 36.4417L15.345 36.3931C16.0989 36.2616 17.1068 36.0586 18.0777 35.5297C19.1142 34.9636 19.9908 34.1002 20.6504 32.828C21.3157 31.5473 21.2672 30.2265 21.0844 29.183C20.9182 28.3474 20.6989 27.5233 20.4277 26.7157C20.3835 26.5748 20.3397 26.4338 20.2963 26.2926C19.711 24.3829 19.6396 23.4538 20.1222 22.719C20.6476 21.9185 21.3671 21.7356 23.2403 21.2496L23.483 21.1895C25.3847 20.6978 27.9603 19.8744 29.4508 16.6925C31.067 13.2475 30.1561 9.36231 29.1653 6.72642C28.8528 5.89836 28.4973 5.08723 28.1002 4.29637C28.2515 4.29065 28.4029 4.29065 28.5542 4.29065C33.1382 4.28364 37.6295 5.58259 41.5036 8.03579C40.9553 8.7648 40.2215 9.72539 39.402 10.7517C37.6031 13.0017 35.5757 15.3174 34.1937 16.3551C33.5573 16.8207 33.0741 17.4657 32.806 18.2077C32.5752 18.8822 32.5211 19.6047 32.6489 20.3061C32.8488 21.4954 33.4798 22.6104 34.0395 23.4623C34.5049 24.1742 35.0532 24.8918 35.5129 25.4979L35.827 25.9067C36.0925 26.264 36.3124 26.5585 36.4752 26.8129C36.558 26.9359 36.6179 27.0359 36.6579 27.1103C36.6979 27.1817 36.7122 27.2189 36.715 27.2218C36.8292 27.5362 36.952 28.0508 37.0948 28.7656L37.1576 29.0686C38.4254 28.5025 39.7989 28.068 41.2694 27.7964C41.1401 27.0983 40.9607 26.4103 40.7326 25.738C40.4185 24.8889 39.7361 23.9769 39.2449 23.3251C39.1216 23.1628 38.9979 23.0008 38.8737 22.8391C38.4359 22.2773 38.0178 21.7005 37.6202 21.1095C37.1776 20.4348 36.9634 19.9688 36.8921 19.6857C38.7481 18.2506 41.0267 15.5804 42.7457 13.4334C43.5909 12.3756 44.3447 11.3893 44.9072 10.6345C49.6169 14.9253 52.4483 20.9012 52.7882 27.2675C54.4443 27.399 55.8721 27.6163 57.0999 27.8707C56.7173 12.4156 44.0849 0.00231934 28.5542 0.00231934C27.5434 0.00231934 26.5412 0.053779 25.556 0.156699ZM6.95581 39.6865C5.25408 36.3643 4.33953 32.6943 4.28309 28.9611C4.22666 25.228 5.02986 21.5319 6.63039 18.1597C8.23093 14.7875 10.5858 11.8297 13.5123 9.51576C16.4389 7.20181 19.8584 5.59388 23.5058 4.81668C24.1554 5.90601 24.7086 7.05011 25.1591 8.23591C26.0557 10.6231 26.4155 13.0703 25.576 14.8685C24.9336 16.2351 24.0198 16.621 22.4122 17.0356L21.9496 17.1499C20.4306 17.5187 18.0348 18.0962 16.5443 20.3604C14.8282 22.9677 15.6734 25.8238 16.2017 27.5505L16.373 28.0994C16.6014 28.8285 16.7728 29.3859 16.8641 29.9177C16.9726 30.5381 16.8927 30.7639 16.8527 30.8468C16.5672 31.3986 16.2816 31.6244 16.0303 31.7617C15.7162 31.9332 15.3051 32.0476 14.5969 32.1705C14.4827 32.1934 14.3571 32.2134 14.2257 32.2334C12.9037 32.4507 10.8021 32.7966 9.09167 34.6349C7.70393 36.1215 7.19852 38.0941 6.95581 39.6865ZM28.5742 57.7661C28.7455 55.0073 29.9876 51.6424 32.095 48.4719C32.7774 47.3112 33.6198 46.1362 34.6249 44.9897C38.0127 41.1308 42.4885 38.3898 47.4628 37.1278C47.8305 37.0357 48.1466 36.8011 48.3415 36.4757C48.5364 36.1502 48.5942 35.7606 48.5022 35.3925C48.4102 35.0243 48.1759 34.7079 47.8509 34.5127C47.5258 34.3176 47.1366 34.2597 46.769 34.3518C41.2312 35.7555 36.2484 38.8066 32.4776 43.1029C31.7152 43.9748 31.0213 44.8811 30.4045 45.7988C30.1234 44.8534 29.9811 43.872 29.9819 42.8856C29.9819 40.264 31.3154 37.4166 33.4284 35.158C35.8382 32.5911 39.0623 30.9402 42.5515 30.4866C50.5467 29.4288 55.5094 30.3151 58.4362 31.1356C58.8315 31.2465 59.1867 31.4688 59.4593 31.776C59.732 32.0833 59.9108 32.4626 59.9742 32.8686C60.0377 33.2747 59.9833 33.6905 59.8174 34.0665C59.6516 34.4425 59.3813 34.7628 59.0387 34.9894C58.876 35.098 58.6133 35.361 58.2963 35.9614C57.9219 36.7186 57.6161 37.508 57.3826 38.32C57.1342 39.1319 56.8972 40.0096 56.6402 40.9644L56.4746 41.5705C56.1576 42.7427 55.8064 44.0006 55.3838 45.247C54.55 47.7114 53.3736 50.3416 51.3948 52.3599C49.3417 54.4555 46.5548 55.762 42.8313 55.762C39.0365 55.762 36.3867 54.2211 34.6934 52.4486C33.5398 54.5641 32.9402 56.5568 32.8488 58.0263C32.8048 58.5866 32.5428 59.1072 32.1192 59.4761C31.6955 59.8449 31.1442 60.0325 30.5839 59.9984C30.0235 59.9643 29.4989 59.7112 29.1231 59.2937C28.7472 58.8762 28.5501 58.3276 28.5742 57.7661Z" fill="#754E29"/>
</svg>
